{
  "accessors": [
    {
      "bufferView": 2,
      "componentType": 5126,
      "count": 140,
      "max": [
        0.14556799829006195,
        0.03656399995088577,
        1.080409049987793
      ],
      "min": [
        -0.14556799829006195,
        -0.05792300030589104,
        1.014361023902893
      ],
      "type": "VEC3"
    },
    {
      "bufferView": 2,
      "byteOffset": 1680,
      "componentType": 5126,
      "count": 140,
      "max": [
        0.8702082633972168,
        0.8543283343315125,
        0.9837828874588013
      ],
      "min": [
        -0.8702082633972168,
        -0.6613002419471741,
        -0.961348295211792
      ],
      "type": "VEC3"
    },
    {
      "bufferView": 1,
      "componentType": 5126,
      "count": 140,
      "max": [
        0.9790040254592896,
        0.2973630130290985
      ],
      "min": [
        -0.3762210011482239,
        0.019043000414967537
      ],
      "type": "VEC2"
    },
    {
      "bufferView": 0,
      "componentType": 5125,
      "count": 600,
      "type": "SCALAR"
    },
    {
      "bufferView": 2,
      "byteOffset": 3360,
      "componentType": 5126,
      "count": 640,
      "max": [
        0.20196999609470367,
        0.6194620132446289,
        1.0595519542694092
      ],
      "min": [
        -0.21205100417137146,
        0.2852250039577484,
        0.7341799736022949
      ],
      "type": "VEC3"
    },
    {
      "bufferView": 2,
      "byteOffset": 11040,
      "componentType": 5126,
      "count": 640,
      "max": [
        0.9609240889549255,
        0.9947822093963623,
        0.999891996383667
      ],
      "min": [
        -0.8244794607162476,
        -0.9654965400695801,
        -0.9999295473098755
      ],
      "type": "VEC3"
    },
    {
      "bufferView": 1,
      "byteOffset": 1120,
      "componentType": 5126,
      "count": 640,
      "max": [
        0.9072269797325134,
        0.9858250021934509
      ],
      "min": [
        0.48681598901748657,
        0.029296999797225
      ],
      "type": "VEC2"
    },
    {
      "bufferView": 0,
      "byteOffset": 2400,
      "componentType": 5125,
      "count": 3168,
      "type": "SCALAR"
    },
    {
      "bufferView": 2,
      "byteOffset": 18720,
      "componentType": 5126,
      "count": 2217,
      "max": [
        0.1922360062599182,
        0.33980000019073486,
        1.0477319955825806
      ],
      "min": [
        -0.19136600196361542,
        -0.30555999279022217,
        0.6198089718818665
      ],
      "type": "VEC3"
    },
    {
      "bufferView": 2,
      "byteOffset": 45324,
      "componentType": 5126,
      "count": 2217,
      "max": [
        0.9985942840576172,
        0.9939047694206238,
        0.9997081160545349
      ],
      "min": [
        -0.9985942840576172,
        -0.9977918863296509,
        -0.9986675381660461
      ],
      "type": "VEC3"
    },
    {
      "bufferView": 1,
      "byteOffset": 6240,
      "componentType": 5126,
      "count": 2217,
      "max": [
        0.9868159890174866,
        0.9789890050888062
      ],
      "min": [
        -0.9824219942092896,
        0.2773439884185791
      ],
      "type": "VEC2"
    },
    {
      "bufferView": 0,
      "byteOffset": 15072,
      "componentType": 5125,
      "count": 12144,
      "type": "SCALAR"
    },
    {
      "bufferView": 2,
      "byteOffset": 71928,
      "componentType": 5126,
      "count": 532,
      "max": [
        0.16294799745082855,
        0.1722469925880432,
        1.0338300466537476
      ],
      "min": [
        -0.16190500557422638,
        -0.051927998661994934,
        0.8092619776725769
      ],
      "type": "VEC3"
    },
    {
      "bufferView": 2,
      "byteOffset": 78312,
      "componentType": 5126,
      "count": 532,
      "max": [
        0.9984772801399231,
        0.9954562187194824,
        0.9972536563873291
      ],
      "min": [
        -0.9985795021057129,
        -0.9963535666465759,
        -0.9978697896003723
      ],
      "type": "VEC3"
    },
    {
      "bufferView": 1,
      "byteOffset": 23976,
      "componentType": 5126,
      "count": 532,
      "max": [
        0.984375,
        0.984145998954773
      ],
      "min": [
        0.015518000349402428,
        0.015625
      ],
      "type": "VEC2"
    },
    {
      "bufferView": 0,
      "byteOffset": 63648,
      "componentType": 5125,
      "count": 3120,
      "type": "SCALAR"
    },
    {
      "bufferView": 2,
      "byteOffset": 84696,
      "componentType": 5126,
      "count": 1712,
      "max": [
        0.7807589769363403,
        0.15573300421237946,
        0.5464609861373901
      ],
      "min": [
        -0.7807589769363403,
        -0.08603700250387192,
        0.43417900800704956
      ],
      "type": "VEC3"
    },
    {
      "bufferView": 2,
      "byteOffset": 105240,
      "componentType": 5126,
      "count": 1712,
      "max": [
        0.9998629093170166,
        0.9989033341407776,
        0.9997137188911438
      ],
      "min": [
        -0.9998629093170166,
        -0.9998491406440735,
        -0.9993976354598999
      ],
      "type": "VEC3"
    },
    {
      "bufferView": 1,
      "byteOffset": 28232,
      "componentType": 5126,
      "count": 1712,
      "max": [
        0.8940430283546448,
        0.9389650225639343
      ],
      "min": [
        -0.5063480138778687,
        0.03662100061774254
      ],
      "type": "VEC2"
    },
    {
      "bufferView": 0,
      "byteOffset": 76128,
      "componentType": 5125,
      "count": 8052,
      "type": "SCALAR"
    },
    {
      "bufferView": 2,
      "byteOffset": 125784,
      "componentType": 5126,
      "count": 3472,
      "max": [
        0.3043439984321594,
        0.30660301446914673,
        0.6608279943466187
      ],
      "min": [
        -0.3043439984321594,
        -0.2801850140094757,
        -0.0001500000071246177
      ],
      "type": "VEC3"
    },
    {
      "bufferView": 2,
      "byteOffset": 167448,
      "componentType": 5126,
      "count": 3472,
      "max": [
        0.9996727108955383,
        0.9999692440032959,
        0.9962397813796997
      ],
      "min": [
        -0.9998745918273926,
        -0.9997640252113342,
        -0.9998278021812439
      ],
      "type": "VEC3"
    },
    {
      "bufferView": 1,
      "byteOffset": 41928,
      "componentType": 5126,
      "count": 3472,
      "max": [
        0.9013670086860657,
        0.9820860028266907
      ],
      "min": [
        -0.9599609971046448,
        0.021484000608325005
      ],
      "type": "VEC2"
    },
    {
      "bufferView": 0,
      "byteOffset": 108336,
      "componentType": 5125,
      "count": 17445,
      "type": "SCALAR"
    }
  ],
  "asset": {
    "extras": {
      "author": "amuy123com123 (https://sketchfab.com/amuy123com123)",
      "license": "CC-BY-4.0 (http://creativecommons.org/licenses/by/4.0/)",
      "source": "https://sketchfab.com/3d-models/plants-vs-zombies-garden-warfare-2-peashooter-5114ac11a70a470bb4468850abd31263",
      "title": "Plants Vs. Zombies Garden Warfare 2 Peashooter"
    },
    "generator": "Sketchfab-15.25.0",
    "version": "2.0"
  },
  "bufferViews": [
    {
      "buffer": 0,
      "byteLength": 178116,
      "name": "floatBufferViews",
      "target": 34963
    },
    {
      "buffer": 0,
      "byteLength": 69704,
      "byteOffset": 178116,
      "byteStride": 8,
      "name": "floatBufferViews",
      "target": 34962
    },
    {
      "buffer": 0,
      "byteLength": 209112,
      "byteOffset": 247820,
      "byteStride": 12,
      "name": "floatBufferViews",
      "target": 34962
    }
  ],
  "buffers": [
    {
      "byteLength": 456932,
      "uri": "scene.bin"
    }
  ],
  "images": [
    {
      "uri": "textures/Material.007_baseColor.png"
    },
    {
      "uri": "textures/Material.008_baseColor.png"
    },
    {
      "uri": "textures/Material.010_baseColor.png"
    },
    {
      "uri": "textures/Material.011_baseColor.png"
    }
  ],
  "materials": [
    {
      "doubleSided": true,
      "name": "Material.007",
      "pbrMetallicRoughness": {
        "baseColorTexture": {
          "index": 0
        },
        "metallicFactor": 0.0,
        "roughnessFactor": 0.8063508326896291
      }
    },
    {
      "doubleSided": true,
      "name": "Material.008",
      "pbrMetallicRoughness": {
        "baseColorTexture": {
          "index": 1
        },
        "metallicFactor": 0.0,
        "roughnessFactor": 0.8063508326896291
      }
    },
    {
      "doubleSided": true,
      "name": "Material.009",
      "pbrMetallicRoughness": {
        "baseColorTexture": {
          "index": 0
        },
        "metallicFactor": 0.0,
        "roughnessFactor": 0.8063508326896291
      }
    },
    {
      "doubleSided": true,
      "name": "Material.010",
      "pbrMetallicRoughness": {
        "baseColorTexture": {
          "index": 2
        },
        "metallicFactor": 0.0,
        "roughnessFactor": 0.8063508326896291
      }
    },
    {
      "doubleSided": true,
      "name": "Material.011",
      "pbrMetallicRoughness": {
        "baseColorTexture": {
          "index": 3
        },
        "metallicFactor": 0.0,
        "roughnessFactor": 0.8063508326896291
      }
    },
    {
      "doubleSided": true,
      "name": "Material.012",
      "pbrMetallicRoughness": {
        "baseColorTexture": {
          "index": 1
        },
        "metallicFactor": 0.0,
        "roughnessFactor": 0.8063508326896291
      }
    }
  ],
  "meshes": [
    {
      "name": "Object_0",
      "primitives": [
        {
          "attributes": {
            "NORMAL": 1,
            "POSITION": 0,
            "TEXCOORD_0": 2
          },
          "indices": 3,
          "material": 0,
          "mode": 4
        }
      ]
    },
    {
      "name": "Object_1",
      "primitives": [
        {
          "attributes": {
            "NORMAL": 5,
            "POSITION": 4,
            "TEXCOORD_0": 6
          },
          "indices": 7,
          "material": 1,
          "mode": 4
        }
      ]
    },
    {
      "name": "Object_2",
      "primitives": [
        {
          "attributes": {
            "NORMAL": 9,
            "POSITION": 8,
            "TEXCOORD_0": 10
          },
          "indices": 11,
          "material": 2,
          "mode": 4
        }
      ]
    },
    {
      "name": "Object_3",
      "primitives": [
        {
          "attributes": {
            "NORMAL": 13,
            "POSITION": 12,
            "TEXCOORD_0": 14
          },
          "indices": 15,
          "material": 3,
          "mode": 4
        }
      ]
    },
    {
      "name": "Object_4",
      "primitives": [
        {
          "attributes": {
            "NORMAL": 17,
            "POSITION": 16,
            "TEXCOORD_0": 18
          },
          "indices": 19,
          "material": 4,
          "mode": 4
        }
      ]
    },
    {
      "name": "Object_5",
      "primitives": [
        {
          "attributes": {
            "NORMAL": 21,
            "POSITION": 20,
            "TEXCOORD_0": 22
          },
          "indices": 23,
          "material": 5,
          "mode": 4
        }
      ]
    }
  ],
  "nodes": [
    {
      "children": [
        1
      ],
      "matrix": [
        1.0,
        0.0,
        0.0,
        0.0,
        0.0,
        2.220446049250313e-16,
        -1.0,
        0.0,
        0.0,
        1.0,
        2.220446049250313e-16,
        0.0,
        0.0,
        0.0,
        0.0,
        1.0
      ],
      "name": "Sketchfab_model"
    },
    {
      "children": [
        2,
        3,
        4,
        5,
        6,
        7
      ],
      "name": "peashooter.obj.cleaner.materialmerger.gles"
    },
    {
      "mesh": 0,
      "name": "Object_2"
    },
    {
      "mesh": 1,
      "name": "Object_3"
    },
    {
      "mesh": 2,
      "name": "Object_4"
    },
    {
      "mesh": 3,
      "name": "Object_5"
    },
    {
      "mesh": 4,
      "name": "Object_6"
    },
    {
      "mesh": 5,
      "name": "Object_7"
    }
  ],
  "samplers": [
    {
      "magFilter": 9729,
      "minFilter": 9987,
      "wrapS": 10497,
      "wrapT": 10497
    }
  ],
  "scene": 0,
  "scenes": [
    {
      "name": "Sketchfab_Scene",
      "nodes": [
        0
      ]
    }
  ],
  "textures": [
    {
      "sampler": 0,
      "source": 0
    },
    {
      "sampler": 0,
      "source": 1
    },
    {
      "sampler": 0,
      "source": 2
    },
    {
      "sampler": 0,
      "source": 3
    }
  ]
}
